<svg width="82" height="82" viewBox="0 0 82 82" fill="none" xmlns="http://www.w3.org/2000/svg">
<mask id="mask0_3062_21" style="mask-type:luminance" maskUnits="userSpaceOnUse" x="0" y="0" width="82" height="82">
<path d="M81.7385 0H0V81.7385H81.7385V0Z" fill="white"/>
</mask>
<g mask="url(#mask0_3062_21)">
<path d="M40.7963 9.5791H41.1018C41.4073 9.60961 41.7005 9.66453 41.9999 9.66606C46.987 9.66606 51.9725 9.66606 56.9596 9.67521C57.7221 9.66821 58.4843 9.71562 59.2401 9.81708C62.3301 10.2747 65.0291 11.6355 67.5127 13.4784C70.1261 15.4127 72.2477 17.8581 74.493 20.1754C75.6569 21.3806 76.7536 22.6544 77.8228 23.945C79.7459 26.2546 81.2733 28.7672 81.5788 31.8518V32.7671C81.171 36.1965 79.1792 38.7899 77.0347 41.2918C75.2797 43.3375 73.5338 45.3924 71.7223 47.3939C65.2968 54.4682 58.8517 61.5274 52.3865 68.5713C50.5979 70.5087 48.7329 72.4141 46.683 74.0632C43.1913 76.8686 38.7511 76.8213 35.2028 74.0769C33.74 72.9352 32.373 71.676 31.1154 70.3119C25.8377 64.6278 20.596 58.9116 15.3905 53.1634C11.4909 48.8401 7.67389 44.4435 3.85683 40.0439C2.57073 38.5626 1.45876 36.944 0.860004 35.0447C0.624779 34.3049 0.496473 33.5299 0.31929 32.7671V31.6993C0.361531 31.6356 0.393007 31.5656 0.412461 31.4918C0.618666 29.1592 1.6451 27.1593 3.02132 25.3348C6.14419 21.1884 9.71954 17.4021 13.6813 14.0458C16.979 11.2572 20.7869 9.59283 25.2455 9.65385C30.1333 9.72097 35.0134 9.67063 39.8982 9.66606C40.1976 9.66453 40.4908 9.60961 40.7963 9.5791ZM40.8605 63.3417H41.0376C45.9254 47.7814 50.8132 32.2047 55.701 16.6118H26.1894C31.0925 32.2282 35.9829 47.8047 40.8605 63.3417ZM19.4764 18.3387C18.9647 18.717 18.5171 18.9764 18.1597 19.3257C15.9587 21.4782 13.7393 23.614 11.6223 25.8321C10.4491 27.0667 9.36641 28.3841 8.38262 29.774C6.9117 31.8366 6.93308 32.6878 8.48343 34.6939C9.89783 36.5245 11.3657 38.317 12.913 40.0332C19.4229 47.2439 25.9538 54.4357 32.5054 61.6087C32.6872 61.8101 32.8781 62.0023 33.066 62.1991L33.2187 62.1106C28.6501 47.5647 24.0816 33.0127 19.4733 18.3433L19.4764 18.3387ZM48.687 62.0786L48.8398 62.1778C48.9452 62.0771 49.0582 61.9825 49.1575 61.8727C56.4586 53.8037 63.7552 45.7291 71.0471 37.6488C72.1469 36.4284 73.0954 35.0554 74.0654 33.7267C74.742 32.7946 74.7451 31.7832 74.1509 30.7916C73.828 30.2155 73.4709 29.6593 73.0817 29.1257C70.4133 25.71 67.3981 22.6178 64.2012 19.6979C63.6696 19.2128 63.0541 18.8223 62.4217 18.3463C57.8165 33.0112 53.2525 47.5449 48.687 62.0786Z" fill="white"/>
</g>
</svg>
