<svg width="1000" height="1000" viewBox="0 0 1000 1000" fill="none" xmlns="http://www.w3.org/2000/svg">
<rect width="1000" height="1000" fill="url(#paint0_linear_3257_17)"/>
<g filter="url(#filter0_d_3257_17)">
<mask id="mask0_3257_17" style="mask-type:luminance" maskUnits="userSpaceOnUse" x="153" y="159" width="695" height="695">
<path d="M848 159H153V854H848V159Z" fill="white"/>
</mask>
<g mask="url(#mask0_3257_17)">
<path d="M499.88 240.445H502.478C505.075 240.705 507.568 241.172 510.115 241.185C552.518 241.185 594.909 241.185 637.312 241.262C643.795 241.203 650.277 241.606 656.703 242.469C682.976 246.36 705.924 257.93 727.041 273.6C749.264 290.047 767.303 310.84 786.395 330.543C796.29 340.79 805.616 351.621 814.707 362.594C831.058 382.233 844.044 403.597 846.643 429.825V437.607C843.174 466.766 826.239 488.817 808.005 510.089C793.083 527.484 778.238 544.956 762.835 561.974C708.202 622.125 653.4 682.148 598.428 742.04C583.22 758.513 567.363 774.714 549.933 788.735C520.244 812.589 482.49 812.187 452.32 788.852C439.882 779.145 428.258 768.439 417.566 756.84C372.691 708.509 328.122 659.906 283.861 611.031C250.704 574.271 218.249 536.889 185.794 499.479C174.858 486.884 165.403 473.122 160.312 456.973C158.312 450.681 157.221 444.093 155.715 437.607V428.527C156.074 427.987 156.342 427.391 156.507 426.762C158.26 406.93 166.988 389.925 178.689 374.412C205.242 339.156 235.643 306.962 269.328 278.425C297.369 254.714 329.746 240.562 367.656 241.081C409.215 241.652 450.71 241.224 492.243 241.185C494.789 241.172 497.283 240.705 499.88 240.445ZM500.425 697.575H501.932C543.491 565.268 585.051 432.825 626.611 300.242H375.682C417.371 433.024 458.953 565.468 500.425 697.575ZM318.603 314.926C314.252 318.143 310.446 320.347 307.407 323.319C288.693 341.621 269.822 359.78 251.821 378.64C241.846 389.137 232.64 400.339 224.275 412.158C211.768 429.694 211.95 436.932 225.132 453.989C237.159 469.555 249.639 484.796 262.796 499.388C318.148 560.699 373.677 621.85 429.385 682.84C430.929 684.552 432.553 686.186 434.151 687.86L435.45 687.106C396.604 563.428 357.759 439.694 318.577 314.965L318.603 314.926ZM566.973 686.835L568.272 687.678C569.168 686.821 570.129 686.018 570.973 685.084C633.052 616.476 695.093 547.819 757.095 479.114C766.446 468.738 774.511 457.064 782.758 445.766C788.511 437.84 788.537 429.241 783.484 420.809C780.74 415.911 777.703 411.182 774.394 406.645C751.704 377.602 726.068 351.31 698.886 326.483C694.366 322.358 689.131 319.037 683.755 314.991C644.598 439.682 605.793 563.258 566.973 686.835Z" fill="white"/>
</g>
</g>
<defs>
<filter id="filter0_d_3257_17" x="140.715" y="225.445" width="730.928" height="606.043" filterUnits="userSpaceOnUse" color-interpolation-filters="sRGB">
<feFlood flood-opacity="0" result="BackgroundImageFix"/>
<feColorMatrix in="SourceAlpha" type="matrix" values="0 0 0 0 0 0 0 0 0 0 0 0 0 0 0 0 0 0 127 0" result="hardAlpha"/>
<feOffset dx="5" dy="5"/>
<feGaussianBlur stdDeviation="10"/>
<feComposite in2="hardAlpha" operator="out"/>
<feColorMatrix type="matrix" values="0 0 0 0 0 0 0 0 0 0 0 0 0 0 0 0 0 0 0.25 0"/>
<feBlend mode="normal" in2="BackgroundImageFix" result="effect1_dropShadow_3257_17"/>
<feBlend mode="normal" in="SourceGraphic" in2="effect1_dropShadow_3257_17" result="shape"/>
</filter>
<linearGradient id="paint0_linear_3257_17" x1="1000" y1="0" x2="-204.302" y2="437.081" gradientUnits="userSpaceOnUse">
<stop stop-color="#1293F0"/>
<stop offset="1" stop-color="#1A3BE7"/>
</linearGradient>
</defs>
</svg>
