<svg width="512" height="513" viewBox="0 0 512 513" fill="none" xmlns="http://www.w3.org/2000/svg">
<mask id="mask0_3035_69" style="mask-type:luminance" maskUnits="userSpaceOnUse" x="0" y="0" width="512" height="513">
<path d="M512 0.5H0V512.5H512V0.5Z" fill="white"/>
</mask>
<g mask="url(#mask0_3035_69)">
<path d="M255.543 60.5H257.457C259.37 60.6911 261.207 61.0351 263.083 61.0447C294.321 61.0447 325.55 61.0447 356.788 61.102C361.564 61.0582 366.339 61.3551 371.073 61.9907C390.428 64.8574 407.334 73.3811 422.891 84.9244C439.262 97.0411 452.551 112.359 466.616 126.874C473.906 134.423 480.776 142.402 487.473 150.486C499.519 164.954 509.086 180.692 511 200.014V205.747C508.445 227.228 495.969 243.473 482.536 259.144C471.543 271.959 460.607 284.83 449.26 297.367C409.012 341.68 368.64 385.898 328.143 430.02C316.939 442.156 305.257 454.091 292.417 464.42C270.545 481.993 242.732 481.697 220.506 464.506C211.343 457.355 202.78 449.468 194.903 440.923C161.844 405.318 129.011 369.513 96.4042 333.507C71.9779 306.426 48.0683 278.887 24.1587 251.328C16.1027 242.049 9.13749 231.911 5.38696 220.014C3.91354 215.379 3.10985 210.525 2 205.747V199.058C2.26459 198.66 2.46176 198.221 2.58361 197.758C3.87525 183.148 10.3047 170.62 18.9252 159.192C38.4865 133.219 60.882 109.502 85.698 88.4792C106.355 71.0113 130.207 60.586 158.135 60.9682C188.751 61.3887 219.32 61.0734 249.917 61.0447C251.793 61.0351 253.63 60.6911 255.543 60.5ZM255.945 397.263H257.055C287.671 299.794 318.288 202.224 348.905 104.552H164.048C194.76 202.371 225.393 299.941 255.945 397.263ZM121.998 115.369C118.793 117.739 115.989 119.363 113.75 121.552C99.9634 135.035 86.0615 148.413 72.8008 162.307C65.4519 170.04 58.6701 178.292 52.5077 186.999C43.2941 199.918 43.428 205.25 53.1392 217.816C61.9989 229.283 71.1934 240.511 80.8854 251.261C121.663 296.428 162.571 341.477 203.61 386.408C204.748 387.669 205.944 388.873 207.121 390.106L208.078 389.551C179.461 298.438 150.844 207.285 121.979 115.398L121.998 115.369ZM304.97 389.351L305.927 389.972C306.587 389.341 307.295 388.749 307.917 388.061C353.65 337.518 399.355 286.939 445.031 236.325C451.92 228.681 457.861 220.081 463.937 211.758C468.175 205.919 468.194 199.584 464.472 193.372C462.45 189.764 460.213 186.28 457.775 182.938C441.06 161.542 422.174 142.173 402.149 123.883C398.819 120.844 394.963 118.398 391.002 115.417C362.156 207.276 333.568 298.313 304.97 389.351Z" fill="url(#paint0_linear_3035_69)"/>
</g>
<defs>
<linearGradient id="paint0_linear_3035_69" x1="511" y1="60.5" x2="-68.9216" y2="317.408" gradientUnits="userSpaceOnUse">
<stop stop-color="#1293F0"/>
<stop offset="1" stop-color="#1A3BE7"/>
</linearGradient>
</defs>
</svg>
