<svg width="123" height="123" viewBox="0 0 123 123" fill="none" xmlns="http://www.w3.org/2000/svg">
<g clip-path="url(#clip0_3035_85)">
<path d="M61.5 123C95.4655 123 123 95.4655 123 61.5C123 27.5345 95.4655 0 61.5 0C27.5345 0 0 27.5345 0 61.5C0 95.4655 27.5345 123 61.5 123Z" fill="white"/>
<path d="M60.7094 30.3917H61.0241C61.3389 30.4232 61.641 30.4799 61.9495 30.4817C67.0873 30.4817 72.2244 30.4849 77.361 30.4912C78.1465 30.4838 78.9316 30.5326 79.7102 30.6372C82.8941 31.1093 85.6745 32.5131 88.2327 34.4141C90.925 36.4089 93.1111 38.9319 95.4238 41.322C96.6199 42.5652 97.7529 43.8789 98.8545 45.2103C100.835 47.5922 102.409 50.1831 102.724 53.3658V54.31C102.303 57.8477 100.252 60.5223 98.0425 63.1032C96.2346 65.2132 94.4362 67.3326 92.5698 69.398C85.9502 76.6949 79.3103 83.9758 72.65 91.2408C70.8075 93.2394 68.8857 95.2066 66.7744 96.9061C63.177 99.8017 58.6025 99.7514 54.9472 96.9206C53.4401 95.7429 52.0319 94.444 50.7366 93.0367C45.2991 87.1738 39.8991 81.2777 34.5363 75.3484C30.519 70.8892 26.5867 66.3538 22.6549 61.8146C21.333 60.2869 20.1842 58.6169 19.5705 56.658C19.3281 55.895 19.1928 55.0956 19.0134 54.3087V53.2071C19.057 53.1417 19.0894 53.0693 19.1091 52.9931C19.3218 50.5873 20.3794 48.5238 21.797 46.6423C25.014 42.365 28.6973 38.4591 32.7788 34.997C36.178 32.1203 40.099 30.4018 44.6923 30.4647C49.7282 30.534 54.7552 30.4817 59.7878 30.4773C60.0931 30.4798 60.3953 30.4232 60.7094 30.3917ZM60.7723 85.8487H60.9549C65.9907 69.7983 71.0265 53.7311 76.0624 37.6471H45.6586C50.7095 53.7554 55.7474 69.8226 60.7723 85.8487ZM38.7406 39.4285C38.2137 39.8188 37.753 40.0863 37.3847 40.4464C35.1186 42.6672 32.8304 44.8697 30.6493 47.1579C29.4435 48.4304 28.3306 49.7879 27.3194 51.2199C25.8042 53.3475 25.8262 54.2256 27.4232 56.2947C28.8805 58.1832 30.3925 60.032 31.9869 61.8027C38.6934 69.2397 45.4215 76.6579 52.1712 84.0572C52.36 84.265 52.5551 84.4632 52.7484 84.6659L52.9058 84.5747C48.1991 69.5711 43.4925 54.5605 38.7425 39.4291L38.7406 39.4285ZM68.8334 84.5457L68.9908 84.6483C69.0997 84.5445 69.2162 84.4469 69.3181 84.3336C76.8396 76.0098 84.3566 67.6797 91.8692 59.3433C93.0022 58.0844 93.9792 56.6687 94.9782 55.2977C95.6756 54.3364 95.6788 53.2934 95.0663 52.2705C94.734 51.6762 94.3663 51.1023 93.9654 50.552C91.2158 47.0269 88.1112 43.8393 84.8165 40.8272C84.2689 40.3236 83.6344 39.9239 82.9835 39.4329C78.2441 54.5618 73.5419 69.5528 68.8385 84.5445L68.8334 84.5457Z" fill="#1669EC"/>
</g>
<defs>
<clipPath id="clip0_3035_85">
<rect width="123" height="123" fill="white"/>
</clipPath>
</defs>
</svg>
